M48
; DRILL file {KiCad 9.0.7} date 2026-05-10T18:18:20+0200
; FORMAT={-:-/ absolute / inch / decimal}
; #@! TF.CreationDate,2026-05-10T18:18:20+02:00
; #@! TF.GenerationSoftware,Kicad,Pcbnew,9.0.7
; #@! TF.FileFunction,Plated,1,2,PTH
FMAT,2
INCH
; #@! TA.AperFunction,Plated,PTH,ViaDrill
T1C0.0118
; #@! TA.AperFunction,Plated,PTH,ComponentDrill
T2C0.0236
; #@! TA.AperFunction,Plated,PTH,ComponentDrill
T3C0.0315
; #@! TA.AperFunction,Plated,PTH,ComponentDrill
T4C0.0394
; #@! TA.AperFunction,Plated,PTH,ComponentDrill
T5C0.0433
; #@! TA.AperFunction,Plated,PTH,ComponentDrill
T6C0.1260
%
G90
G05
T1
X3.8691Y-3.6082
T3
X4.3701Y-3.2114
X4.3701Y-3.4035
X4.5669Y-2.4378
X4.5669Y-2.5378
X4.5669Y-2.6378
X4.5669Y-2.7378
X4.5669Y-2.8378
X4.5669Y-2.9378
X4.5669Y-3.0378
X4.5669Y-3.1378
X4.5669Y-3.2378
X4.5669Y-3.3378
X4.5669Y-3.4378
X4.5669Y-3.5378
X4.5669Y-3.6378
X4.5669Y-3.7378
X4.8669Y-2.4378
X4.8669Y-2.5378
X4.8669Y-2.6378
X4.8669Y-2.7378
X4.8669Y-2.8378
X4.8669Y-2.9378
X4.8669Y-3.0378
X4.8669Y-3.1378
X4.8669Y-3.2378
X4.8669Y-3.3378
X4.8669Y-3.4378
X4.8669Y-3.5378
X4.8669Y-3.6378
X4.8669Y-3.7378
X5.5118Y-3.2114
X5.5118Y-3.4035
X5.6843Y-2.4346
X5.6843Y-2.5346
X5.6843Y-2.6346
X5.6843Y-2.7346
X5.6843Y-2.8346
X5.6843Y-2.9346
X5.6843Y-3.0346
X5.6843Y-3.1346
X5.6843Y-3.2346
X5.6843Y-3.3346
X5.6843Y-3.4346
X5.6843Y-3.5346
X5.6843Y-3.6346
X5.6843Y-3.7346
X5.9843Y-2.4346
X5.9843Y-2.5346
X5.9843Y-2.6346
X5.9843Y-2.7346
X5.9843Y-2.8346
X5.9843Y-2.9346
X5.9843Y-3.0346
X5.9843Y-3.1346
X5.9843Y-3.2346
X5.9843Y-3.3346
X5.9843Y-3.4346
X5.9843Y-3.5346
X5.9843Y-3.6346
X5.9843Y-3.7346
X6.5748Y-2.9898
X6.5748Y-3.2575
X6.6732Y-2.9898
X6.6732Y-3.0724
X6.6732Y-3.1748
X6.6732Y-3.2575
X6.8504Y-2.9898
X6.8504Y-3.2575
X6.9488Y-2.9898
X6.9488Y-3.0724
X6.9488Y-3.1748
X6.9488Y-3.2575
T4
X3.5055Y-2.8118
X3.5055Y-2.902
X3.5055Y-2.9921
X3.5055Y-3.0823
X3.5055Y-3.1724
X3.563Y-3.937
X3.5835Y-2.8569
X3.5835Y-2.947
X3.5835Y-3.0372
X3.5835Y-3.1274
X3.5835Y-3.2175
X3.6614Y-2.8118
X3.6614Y-2.902
X3.6614Y-2.9921
X3.6614Y-3.0823
X3.6614Y-3.1724
X4.0157Y-2.0079
X4.3701Y-2.8528
X4.3701Y-2.9528
X4.5244Y-4.0157
X4.6244Y-4.0157
X4.7244Y-4.0157
X4.8244Y-4.0157
X4.9244Y-4.0157
X5.126Y-4.4094
X5.1937Y-4.0157
X5.2362Y-2.5984
X5.2362Y-2.6984
X5.2362Y-2.874
X5.2362Y-2.974
X5.2937Y-4.0157
X5.3543Y-2.1654
X5.3543Y-2.2654
X5.3937Y-4.0157
X5.4252Y-4.4094
X5.5118Y-2.8528
X5.5118Y-2.9528
X6.1811Y-4.1732
X6.2992Y-2.0472
X6.5748Y-2.4772
X6.5748Y-2.5772
X6.5748Y-2.6772
X6.5748Y-3.5976
X6.5748Y-3.6976
X6.5748Y-3.7976
X6.5748Y-3.8976
X6.5748Y-3.9976
X6.9685Y-2.5591
X7.0079Y-3.622
T5
X4.5472Y-2.0276
X4.5472Y-2.2047
X4.8031Y-2.0276
X4.8031Y-2.2047
X5.7283Y-2.0276
X5.7283Y-2.2047
X5.9843Y-2.0276
X5.9843Y-2.2047
T6
X3.5835Y-2.5104
X3.5835Y-3.4947
X3.6614Y-1.4567
X3.6614Y-4.685
X6.8898Y-1.4567
X6.8898Y-4.685
T2
G00X4.4Y-1.1417
M15
G01X4.4Y-1.1102
M16
G05
G00X4.4Y-1.3122
M15
G01X4.4Y-1.2689
M16
G05
G00X4.7402Y-1.1417
M15
G01X4.7402Y-1.1102
M16
G05
G00X4.7402Y-1.3122
M15
G01X4.7402Y-1.2689
M16
G05
T3
G00X6.7067Y-2.8579
M15
G01X6.6398Y-2.8579
M16
G05
G00X6.7067Y-3.3894
M15
G01X6.6398Y-3.3894
M16
G05
G00X7.1004Y-2.8579
M15
G01X7.0335Y-2.8579
M16
G05
G00X7.1004Y-3.3894
M15
G01X7.0335Y-3.3894
M16
G05
G00X7.0984Y-3.1571
M15
G01X7.0984Y-3.0902
M16
G05
M30
