%TF.GenerationSoftware,KiCad,Pcbnew,9.0.7*%
%TF.CreationDate,2026-05-10T18:18:16+02:00*%
%TF.ProjectId,Projekt_Schaltplan,50726f6a-656b-4745-9f53-6368616c7470,rev?*%
%TF.SameCoordinates,Original*%
%TF.FileFunction,Paste,Top*%
%TF.FilePolarity,Positive*%
%FSLAX46Y46*%
G04 Gerber Fmt 4.6, Leading zero omitted, Abs format (unit mm)*
G04 Created by KiCad (PCBNEW 9.0.7) date 2026-05-10 18:18:16*
%MOMM*%
%LPD*%
G01*
G04 APERTURE LIST*
G04 Aperture macros list*
%AMRoundRect*
0 Rectangle with rounded corners*
0 $1 Rounding radius*
0 $2 $3 $4 $5 $6 $7 $8 $9 X,Y pos of 4 corners*
0 Add a 4 corners polygon primitive as box body*
4,1,4,$2,$3,$4,$5,$6,$7,$8,$9,$2,$3,0*
0 Add four circle primitives for the rounded corners*
1,1,$1+$1,$2,$3*
1,1,$1+$1,$4,$5*
1,1,$1+$1,$6,$7*
1,1,$1+$1,$8,$9*
0 Add four rect primitives between the rounded corners*
20,1,$1+$1,$2,$3,$4,$5,0*
20,1,$1+$1,$4,$5,$6,$7,0*
20,1,$1+$1,$6,$7,$8,$9,0*
20,1,$1+$1,$8,$9,$2,$3,0*%
G04 Aperture macros list end*
%ADD10RoundRect,0.237500X-0.237500X0.300000X-0.237500X-0.300000X0.237500X-0.300000X0.237500X0.300000X0*%
%ADD11RoundRect,0.250000X0.337500X0.475000X-0.337500X0.475000X-0.337500X-0.475000X0.337500X-0.475000X0*%
%ADD12RoundRect,0.150000X-0.825000X-0.150000X0.825000X-0.150000X0.825000X0.150000X-0.825000X0.150000X0*%
%ADD13RoundRect,0.250000X-0.350000X-0.450000X0.350000X-0.450000X0.350000X0.450000X-0.350000X0.450000X0*%
%ADD14RoundRect,0.250000X0.350000X0.450000X-0.350000X0.450000X-0.350000X-0.450000X0.350000X-0.450000X0*%
%ADD15RoundRect,0.250000X-0.450000X0.350000X-0.450000X-0.350000X0.450000X-0.350000X0.450000X0.350000X0*%
%ADD16RoundRect,0.250000X0.450000X-0.350000X0.450000X0.350000X-0.450000X0.350000X-0.450000X-0.350000X0*%
%ADD17RoundRect,0.250000X0.475000X-0.337500X0.475000X0.337500X-0.475000X0.337500X-0.475000X-0.337500X0*%
%ADD18RoundRect,0.250000X-0.325000X-0.450000X0.325000X-0.450000X0.325000X0.450000X-0.325000X0.450000X0*%
%ADD19RoundRect,0.250000X-0.337500X-0.475000X0.337500X-0.475000X0.337500X0.475000X-0.337500X0.475000X0*%
%ADD20RoundRect,0.150000X0.150000X0.425000X-0.150000X0.425000X-0.150000X-0.425000X0.150000X-0.425000X0*%
%ADD21RoundRect,0.075000X0.075000X0.500000X-0.075000X0.500000X-0.075000X-0.500000X0.075000X-0.500000X0*%
%ADD22O,1.000000X2.100000*%
%ADD23O,1.000000X1.800000*%
G04 APERTURE END LIST*
D10*
%TO.C,C17*%
X112000000Y-54000000D03*
X112000000Y-55725000D03*
%TD*%
D11*
%TO.C,C13*%
X107037500Y-86000000D03*
X104962500Y-86000000D03*
%TD*%
D12*
%TO.C,U3*%
X129525000Y-38095000D03*
X129525000Y-39365000D03*
X129525000Y-40635000D03*
X129525000Y-41905000D03*
X134475000Y-41905000D03*
X134475000Y-40635000D03*
X134475000Y-39365000D03*
X134475000Y-38095000D03*
%TD*%
D13*
%TO.C,R3*%
X110000000Y-59000000D03*
X112000000Y-59000000D03*
%TD*%
D14*
%TO.C,R11*%
X101000000Y-89000000D03*
X99000000Y-89000000D03*
%TD*%
D13*
%TO.C,R16*%
X139000000Y-95000000D03*
X141000000Y-95000000D03*
%TD*%
D11*
%TO.C,C15*%
X136075000Y-86000000D03*
X134000000Y-86000000D03*
%TD*%
D15*
%TO.C,R19*%
X162000000Y-57000000D03*
X162000000Y-59000000D03*
%TD*%
D11*
%TO.C,Cout1*%
X137037500Y-45000000D03*
X134962500Y-45000000D03*
%TD*%
D14*
%TO.C,R13*%
X101000000Y-81000000D03*
X99000000Y-81000000D03*
%TD*%
D13*
%TO.C,R17*%
X111000000Y-95000000D03*
X113000000Y-95000000D03*
%TD*%
D14*
%TO.C,R4*%
X117840000Y-40640000D03*
X115840000Y-40640000D03*
%TD*%
D16*
%TO.C,R1*%
X137000000Y-49000000D03*
X137000000Y-47000000D03*
%TD*%
D17*
%TO.C,Cin1*%
X127000000Y-39137500D03*
X127000000Y-37062500D03*
%TD*%
D11*
%TO.C,C14*%
X136075000Y-82020000D03*
X134000000Y-82020000D03*
%TD*%
D18*
%TO.C,D3*%
X134950000Y-95000000D03*
X137000000Y-95000000D03*
%TD*%
%TO.C,D4*%
X106950000Y-95000000D03*
X109000000Y-95000000D03*
%TD*%
D10*
%TO.C,C16*%
X142000000Y-54137500D03*
X142000000Y-55862500D03*
%TD*%
D14*
%TO.C,R9*%
X101000000Y-85000000D03*
X99000000Y-85000000D03*
%TD*%
D13*
%TO.C,R2*%
X140000000Y-59000000D03*
X142000000Y-59000000D03*
%TD*%
D15*
%TO.C,R20*%
X158000000Y-57000000D03*
X158000000Y-59000000D03*
%TD*%
D11*
%TO.C,C12*%
X107075000Y-82000000D03*
X105000000Y-82000000D03*
%TD*%
D19*
%TO.C,C5*%
X136962500Y-39000000D03*
X139037500Y-39000000D03*
%TD*%
D18*
%TO.C,D1*%
X135000000Y-51000000D03*
X137050000Y-51000000D03*
%TD*%
D20*
%TO.C,P1*%
X119280000Y-33355000D03*
X118480000Y-33355000D03*
D21*
X117330000Y-33355000D03*
X116330000Y-33355000D03*
X115830000Y-33355000D03*
X114830000Y-33355000D03*
D20*
X113680000Y-33355000D03*
X112880000Y-33355000D03*
X112880000Y-33355000D03*
X113680000Y-33355000D03*
D21*
X114330000Y-33355000D03*
X115330000Y-33355000D03*
X116830000Y-33355000D03*
X117830000Y-33355000D03*
D20*
X118480000Y-33355000D03*
X119280000Y-33355000D03*
D22*
X120400000Y-32780000D03*
D23*
X120400000Y-28600000D03*
D22*
X111760000Y-32780000D03*
D23*
X111760000Y-28600000D03*
%TD*%
D19*
%TO.C,C9*%
X136925000Y-41000000D03*
X139000000Y-41000000D03*
%TD*%
M02*
